<?xml version="1.0" encoding="utf-8"?>
<svg data-name="Layer 1" width="773.11417" height="610.8036" viewBox="0 0 773.11417 610.8036" xmlns="http://www.w3.org/2000/svg" xmlns:xlink="http://www.w3.org/1999/xlink">
  <defs>
    <linearGradient id="a3c4672e-2259-4d6c-8c24-5949363a8af1-2637" x1="278.97312" y1="470.29515" x2="278.97312" y2="199.61685" gradientUnits="userSpaceOnUse" gradientTransform="matrix(0.549175, 0, 0, 0.549175, 7.30168, 15.232918)">
      <stop offset="0" stop-color="gray" stop-opacity="0.25"/>
      <stop offset="0.5351" stop-color="gray" stop-opacity="0.12"/>
      <stop offset="1" stop-color="gray" stop-opacity="0.1"/>
    </linearGradient>
    <linearGradient id="acf699b8-10e6-407b-86e3-0f7f8fa4bdb6-2638" x1="191.7952" y1="163.03871" x2="191.7952" y2="0" xlink:href="#a3c4672e-2259-4d6c-8c24-5949363a8af1-2637"/>
    <linearGradient id="b28a1e8f-be05-408d-a6f5-6fd2e5b0337f-2639" x1="563.67304" y1="215.46739" x2="563.67304" y2="0.87558" gradientTransform="matrix(0.549175, 0, 0, 0.549175, 93.749525, -20.765686)" xlink:href="#a3c4672e-2259-4d6c-8c24-5949363a8af1-2637"/>
    <linearGradient id="f1fc4b36-2829-4464-83b0-fd2af5b19fd6-2640" x1="639.87752" y1="470.29515" x2="639.87752" y2="255.70335" gradientTransform="matrix(0.549175, 0, 0, 0.549175, 93.749525, -20.765686)" xlink:href="#a3c4672e-2259-4d6c-8c24-5949363a8af1-2637"/>
    <linearGradient id="bb60ebe1-81e2-422a-a970-aa43062904da-2641" x1="453.7012" y1="780.90233" x2="453.7012" y2="650.04347" gradientTransform="matrix(-1, 0, 0, 1, 1039.58465, -85)" xlink:href="#a3c4672e-2259-4d6c-8c24-5949363a8af1-2637"/>
    <linearGradient id="a1b2f907-b002-48c8-973d-a12b277f13d1-2642" x1="488.7343" y1="780.90233" x2="488.7343" y2="650.04347" gradientTransform="matrix(-1, 0, 0, 1, 1039.58465, -85)" xlink:href="#a3c4672e-2259-4d6c-8c24-5949363a8af1-2637"/>
    <linearGradient id="a8136d5f-4c26-4562-977f-ea29024932d1-2643" x1="235.31858" y1="696.90233" x2="235.31858" y2="566.04347" xlink:href="#a3c4672e-2259-4d6c-8c24-5949363a8af1-2637"/>
    <linearGradient id="eaaf4b84-3353-429f-a894-84d4b3cd89b7-2644" x1="270.35167" y1="696.90233" x2="270.35167" y2="566.04347" xlink:href="#a3c4672e-2259-4d6c-8c24-5949363a8af1-2637"/>
    <linearGradient id="fa1ca12c-a5d3-4b88-b665-ae3e1db189da-2645" x1="319.81014" y1="696.88015" x2="319.81014" y2="561.94405" xlink:href="#a3c4672e-2259-4d6c-8c24-5949363a8af1-2637"/>
    <clipPath id="a">
      <path d="M239.03 226.605l-42.13 24.317c-1.578.91-2.546 2.59-2.546 4.406v48.668c0 1.817.968 3.496 2.546 4.406l42.133 24.336c1.575.907 3.517.907 5.09 0l42.126-24.336c1.57-.91 2.54-2.59 2.54-4.406v-48.668c0-1.816-.97-3.496-2.55-4.406l-42.12-24.317c-.79-.453-1.67-.68-2.55-.68-.88 0-1.76.227-2.55.68"/>
    </clipPath>
    <linearGradient id="b" x1="-.348" x2="1.251" gradientTransform="rotate(116.114 53.1 202.97) scale(86.48)" gradientUnits="userSpaceOnUse">
      <stop offset="0.3" stop-color="#3E863D"/>
      <stop offset="0.5" stop-color="#55934F"/>
      <stop offset="0.8" stop-color="#5AAD45"/>
    </linearGradient>
    <clipPath id="c">
      <path d="M195.398 307.086c.403.523.907.976 1.5 1.316l36.14 20.875 6.02 3.46c.9.52 1.926.74 2.934.665.336-.027.672-.09 1-.183l44.434-81.36c-.34-.37-.738-.68-1.184-.94l-27.586-15.93-14.582-8.39c-.414-.24-.863-.41-1.32-.53zm0 0"/>
    </clipPath>
    <linearGradient id="d" x1="-.456" x2=".582" gradientTransform="rotate(-36.46 550.846 -214.337) scale(132.798)" gradientUnits="userSpaceOnUse">
      <stop offset="0.57" stop-color="#3E863D"/>
      <stop offset="0.72" stop-color="#619857"/>
      <stop offset="1" stop-color="#76AC64"/>
    </linearGradient>
    <clipPath id="e">
      <path d="M241.066 225.953c-.707.07-1.398.29-2.035.652l-42.01 24.247 45.3 82.51c.63-.09 1.25-.3 1.81-.624l42.13-24.336c1.3-.754 2.19-2.03 2.46-3.476l-46.18-78.89c-.34-.067-.68-.102-1.03-.102-.14 0-.28.007-.42.02"/>
    </clipPath>
    <linearGradient id="f" x1=".043" x2=".984" gradientTransform="translate(192.862 279.652) scale(97.417)" gradientUnits="userSpaceOnUse">
      <stop offset="0.16" stop-color="#6BBF47"/>
      <stop offset="0.38" stop-color="#79B461"/>
      <stop offset="0.47" stop-color="#75AC64"/>
      <stop offset="0.7" stop-color="#659E5A"/>
      <stop offset="0.9" stop-color="#3E863D"/>
    </linearGradient>
    <path id="path-0" style="fill: none;" d="M -192.704 264.902 L -120.693 369.389 C -119.921 370.16 -117.228 372.147 -116.457 372.919"/>
  </defs>
  <rect id="be98c830-918a-42d1-b1b0-0085d5874e90" data-name="Rectangle 75" x="-437.126" y="31.577" width="437.126" height="438.668" fill="#fff" style="" transform="matrix(-1, 0, 0, 1, 0, 0)"/>
  <circle id="b9ed5a45-8896-4ed9-86b4-15f853c9a185" data-name="Ellipse 90" cx="-435.944" cy="11.582" r="3.651" fill="#fff" transform="matrix(-1, 0, 0, 1, 0, 0)"/>
  <circle id="a9233a38-f8ba-48e0-88f3-496fd4836d40" data-name="Ellipse 91" cx="-422.087" cy="11.582" r="3.651" fill="#fff" transform="matrix(-1, 0, 0, 1, 0, 0)"/>
  <circle id="aa82180f-a6a9-4f5f-82fc-e73106f4ad92" data-name="Ellipse 92" cx="-408.23" cy="11.582" r="3.651" fill="#fff" transform="matrix(-1, 0, 0, 1, 0, 0)"/>
  <path d="M 657.117 286.471 C 657.177 297.139 647.934 305.482 637.327 304.333 C 636.536 304.243 635.751 304.099 634.979 303.9 L 574.515 355.728 L 578.129 375.203 L 548.327 384.861 L 539.341 353.651 C 537.159 345.959 540.281 337.746 547.022 333.446 L 621.403 286.402 C 621.403 285.816 621.434 285.232 621.494 284.65 C 622.646 274.042 632.777 266.802 643.185 269.148 C 643.899 269.306 644.602 269.509 645.29 269.756 C 652.341 272.305 657.06 278.974 657.117 286.471 Z" style="fill: rgb(250, 227, 210);" transform="matrix(-1, 0, 0, -1, 1195.769653, 653.566254)"/>
  <path d="M 542.834 471.052 L 620.792 471.052 C 620.792 468.811 701.137 466.992 701.137 466.992 C 702.398 466.043 703.547 464.953 704.563 463.744 C 707.615 460.105 709.283 455.504 709.273 450.754 L 709.273 447.507 C 709.268 436.298 700.183 427.213 688.975 427.209 L 542.834 427.209 C 531.628 427.219 522.546 436.301 522.536 447.507 L 522.536 450.754 C 522.552 461.958 531.63 471.036 542.834 471.052 Z" fill="#3f3d56" transform="matrix(-1, 0, 0, -1, 1231.809082, 898.261017)"/>
  <rect x="-625.284" y="470.245" width="21.109" height="136.399" fill="#3f3d56" transform="matrix(-1, 0, 0, 1, 0, 0)"/>
  <path d="M 686.988 586.998 C 686.988 584.444 655 586.01 615.541 586.01 C 576.082 586.01 544.094 584.444 544.094 586.998 C 544.094 589.552 576.082 609.804 615.541 609.804 C 655 609.804 686.988 589.552 686.988 586.998 Z" fill="#3f3d56" transform="matrix(-1, 0, 0, -1, 1231.08197, 1195.338867)"/>
  <polygon points="533.777 538.282 553.683 538.284 563.154 589.916 533.773 589.914 533.777 538.282" style="fill: rgb(250, 227, 210);" transform="matrix(-1, 0, 0, -1, 1096.927002, 1128.197998)"/>
  <path d="M 504.04 584.006 L 568.229 584.008 L 568.229 584.82 C 568.229 598.618 557.044 609.804 543.245 609.804 L 543.243 609.804 L 504.038 609.803 L 504.04 584.006 Z" fill="#2f2e41" transform="matrix(-1, 0, 0, -1, 1072.266998, 1193.809998)"/>
  <path d="M 632.081 378.568 L 671.768 467.565 C 678.64 483.12 672.407 501.344 657.449 509.433 L 571.366 555.594 L 532.084 558.935 L 495.85 562.229 L 495.588 561.786 C 495.254 561.222 487.463 547.765 492.73 533.01 C 496.724 521.818 507.115 513.075 523.612 507.026 C 562.12 492.906 606.603 480.839 623.941 476.307 C 625.491 475.911 626.797 474.871 627.531 473.449 C 628.267 472.045 628.383 470.398 627.85 468.905 L 590.979 386.067 C 589.329 381.565 592.39 376.72 597.165 376.277 L 624.715 374.271 C 624.949 374.249 625.182 374.238 625.414 374.238 C 628.296 374.239 630.908 375.935 632.081 378.568 Z" fill="#cbcbcb" transform="matrix(-1, 0, 0, -1, 1165.46286, 936.46701)"/>
  <polygon points="546.766 538.282 566.672 538.284 576.144 589.916 546.763 589.914 546.766 538.282" style="fill: rgb(250, 227, 210); paint-order: fill;" transform="matrix(-1, 0, 0, -1, 1122.906982, 1128.197998)"/>
  <path d="M 517.03 584.006 L 581.219 584.008 L 581.219 584.82 C 581.22 598.618 570.034 609.804 556.236 609.804 L 556.233 609.804 L 517.029 609.803 L 517.03 584.006 Z" fill="#2f2e41" transform="matrix(-1, 0, 0, -1, 1098.247986, 1193.809998)"/>
  <path d="M 638.576 383.882 L 678.263 472.878 C 685.135 488.433 678.902 506.658 663.944 514.747 L 577.861 560.907 L 538.579 564.249 L 510.199 566.71 L 510.203 567.1 C 509.868 566.535 502.078 553.079 507.344 538.323 C 511.338 527.131 513.61 518.389 530.107 512.34 C 568.615 498.22 613.098 486.153 630.436 481.621 C 631.986 481.224 633.292 480.184 634.026 478.763 C 634.762 477.359 634.878 475.711 634.345 474.218 L 597.474 391.381 C 595.824 386.878 598.885 382.034 603.66 381.591 L 631.21 379.585 C 631.444 379.562 631.677 379.551 631.909 379.551 C 634.791 379.552 637.403 381.249 638.576 383.882 Z" fill="#cbcbcb" transform="matrix(-1, 0, 0, -1, 1186.572266, 946.65097)"/>
  <path d="M 662.446 250.537 C 664.348 251.883 691.674 237.547 696.545 248.914 C 673.812 305.746 689.478 330.288 675.553 362.879 C 670.583 374.268 660.67 382.752 648.651 385.904 L 612.523 387.727 L 612.335 387.637 C 595.595 379.437 586.211 361.231 589.246 342.839 C 589.375 307.37 610.597 280.318 603.176 254.592 C 602.547 252.419 602.831 250.083 603.962 248.124 C 605.059 246.229 606.89 244.872 609.021 244.374 L 656.726 250.738 C 658.98 250.202 661.356 250.662 663.248 252 L 662.446 250.537 Z" fill="#2f2e41" transform="matrix(-1, 0, 0, -1, 1285.225098, 632.100983)"/>
  <circle cx="-660.648" cy="190.998" r="39.882" style="fill: rgb(250, 227, 210);" transform="matrix(-1, 0, 0, 1, 0, 0)"/>
  <path d="M 652.242 138.84 C 654.361 137.913 658.701 154.798 656.757 158.175 C 653.866 163.197 654.037 163.161 652.118 166.484 C 650.199 169.807 649.77 174.355 652.255 177.278 C 654.74 180.202 660.491 179.814 661.625 176.148 C 660.895 183.111 667.782 188.708 674.604 190.281 C 681.425 191.853 688.621 190.877 695.48 192.277 C 703.441 193.901 711.723 200.574 708.547 209.328 C 708.002 210.785 707.186 212.126 706.142 213.28 C 702.473 217.406 697.34 219.168 692.321 220.871 C 681.879 224.415 671.153 228.004 660.134 227.612 C 642.028 226.97 624.914 214.454 618.814 197.395 C 618.055 195.266 617.466 193.08 617.055 190.858 C 613.273 170.522 625.082 150.462 644.263 142.717 L 652.242 138.84 Z" fill="#2f2e41" transform="matrix(-1, 0, 0, -1, 1325.594055, 366.444687)"/>
  <path d="M 495.753 409.103 L 500.327 381.947 C 500.378 381.644 500.344 381.333 500.23 381.048 L 464.35 291.395 C 463.872 290.2 462.279 289.971 461.484 290.982 C 461.267 291.258 461.142 291.595 461.128 291.945 L 459.608 327.973 C 459.597 328.212 459.639 328.451 459.729 328.673 L 492.556 409.455 C 493.04 410.647 494.634 410.868 495.424 409.852 C 495.594 409.633 495.707 409.376 495.753 409.103 L 495.753 409.103 Z" fill="#3f3d56" transform="matrix(-1, 0, 0, -1, 959.95636, 700.841461)"/>
  <polygon points="494.026 398.964 498.372 375.634 466.531 293.823 462.397 320.14 494.026 398.964" style="fill: rgb(255, 222, 89);" transform="matrix(-1, 0, 0, -1, 960.769012, 692.786987)"/>
  <path d="M 496.821 369.034 C 497.604 365.976 600.461 362.665 601.528 363.59 C 602.485 364.776 603.314 366.059 604.002 367.418 C 605.08 369.343 606.078 371.274 606.078 371.274 L 604.387 403.803 L 503.066 414.631 C 503.066 414.631 498.583 387.485 497.176 375.014 C 496.858 373.038 496.739 371.034 496.821 369.034 Z" fill="#3f3d56" transform="matrix(-1, 0, 0, -1, 1102.873901, 778.06311)"/>
  <polygon points="556.539 402.682 556.548 374.657 511.734 377.843 513.717 405.727 556.539 402.682" opacity="0.1" style="isolation:isolate" transform="matrix(-1, 0, 0, -1, 1068.281982, 780.384003)"/>
  <polygon points="596.611 392.596 596.882 392.63 594.766 380.716 569.869 382.486 570.719 394.437 596.611 392.596" opacity="0.1" style="isolation:isolate" transform="matrix(-1, 0, 0, -1, 1166.751038, 775.153015)"/>
  <path d="M 498.897 408.651 C 499.68 405.593 602.537 402.282 603.604 403.207 C 604.561 404.393 605.39 405.676 606.078 407.035 L 499.252 414.631 C 498.934 412.654 498.815 410.651 498.897 408.651 Z" opacity="0.1" style="isolation:isolate" transform="matrix(-1, 0, 0, -1, 1104.94989, 817.680115)"/>
  <path d="M 543.798 337.483 L 630.562 321.291 C 630.779 320.747 631.024 320.216 631.295 319.697 C 633.68 315.212 637.857 311.95 642.787 310.725 C 647.738 309.48 652.986 310.43 657.185 313.333 C 668.522 321.117 667.182 338.254 654.773 344.18 C 649.668 346.619 643.709 346.494 638.71 343.845 C 638.008 343.469 637.333 343.044 636.69 342.573 L 561.329 368.317 L 557.472 387.746 L 526.213 385.678 L 529.452 353.108 C 530.259 345.303 536.09 338.952 543.798 337.483 Z" style="fill: rgb(250, 227, 210);" transform="matrix(-1, 0, 0, -1, 1191.152222, 697.93573)"/>
  <path d="M 621.01 269.263 L 666.432 284.192 L 655.836 314.615 C 652.931 322.955 644.441 327.99 635.729 326.538 C 626.91 325.068 620.478 317.39 620.576 308.45 L 621.01 269.263 Z" fill="#2f2e41" transform="matrix(-1, 0, 0, -1, 1287.006897, 596.049408)"/>
  <title>JavaScript frameworks</title>
  <path d="M 86.738 316.197 C 86.738 291.352 71.968 282.677 53.751 282.677 C 53.327 282.677 52.905 282.682 52.485 282.693 C 51.641 282.711 50.804 282.748 49.979 282.808 C 33.536 283.97 20.761 293.093 20.761 316.197 C 20.761 340.105 51.309 370.276 53.613 372.516 L 53.618 372.518 C 53.705 372.605 53.751 372.649 53.751 372.649 C 53.751 372.649 86.738 341.043 86.738 316.197 Z" fill="#3f3d56" transform="matrix(-1, 0, 0, -1, 107.498997, 655.325989)"/>
  <path d="M 53.81 286.463 L 65.877 303.321 L 53.78 284.612 L 53.748 282.677 C 52.904 282.695 52.067 282.732 51.242 282.792 L 52.542 307.647 L 52.533 307.84 L 52.556 307.877 L 52.677 310.224 L 40.551 328.981 L 52.714 311.985 L 52.744 311.487 L 53.727 330.267 L 43.346 349.648 L 53.854 333.566 L 54.876 372.499 L 54.881 372.633 L 54.881 372.502 L 54.711 341.8 L 65.044 353.972 L 54.668 339.156 L 54.395 322.341 L 64.045 338.478 L 54.354 319.865 L 54.202 310.518 L 68.211 332.979 L 54.149 307.255 L 53.81 286.463 Z" fill="#f2f2f2" transform="matrix(-1, 0, 0, -1, 108.761997, 655.309998)"/>
  <path d="M 403.021 352.096 C 403.021 337.21 394.171 332.011 383.254 332.011 C 383 332.011 382.747 332.014 382.496 332.021 C 381.99 332.032 381.489 332.054 380.994 332.09 C 371.141 332.786 363.487 338.253 363.487 352.096 C 363.487 366.422 381.791 384.5 383.172 385.842 L 383.174 385.843 C 383.227 385.896 383.254 385.922 383.254 385.922 C 383.254 385.922 403.021 366.984 403.021 352.096 Z" fill="#3f3d56" transform="matrix(-1, 0, 0, -1, 766.507996, 717.932983)"/>
  <path d="M 383.291 334.279 L 390.521 344.381 L 383.273 333.17 L 383.254 332.011 C 382.748 332.022 382.247 332.044 381.752 332.08 L 382.532 346.973 L 382.526 347.089 L 382.54 347.111 L 382.612 348.517 L 375.346 359.756 L 382.634 349.572 L 382.652 349.274 L 383.242 360.527 L 377.021 372.14 L 383.317 362.504 L 383.93 385.832 L 383.932 385.912 L 383.932 385.833 L 383.831 367.437 L 390.023 374.731 L 383.804 365.853 L 383.641 355.778 L 389.424 365.446 L 383.617 354.294 L 383.526 348.693 L 391.92 362.152 L 383.494 346.738 L 383.291 334.279 Z" fill="#f2f2f2" transform="matrix(-1, 0, 0, -1, 767.266022, 717.922974)"/>
  <rect x="82.5" y="124.858" width="156.015" height="148.65" fill="url(#a3c4672e-2259-4d6c-8c24-5949363a8af1-2637)"/>
  <rect x="85.847" y="128.206" width="149.32" height="141.954" fill="#fff"/>
  <rect x="91.205" y="133.562" width="138.606" height="131.24" style="fill: rgb(255, 222, 89);"/>
  <g opacity="0.5" transform="matrix(0.549175, 0, 0, 0.549175, 7.301656, 15.232918)">
    <rect x="5.24665" width="373.09711" height="163.03871" fill="url(#acf699b8-10e6-407b-86e3-0f7f8fa4bdb6-2638)"/>
  </g>
  <rect x="12.862" y="16.384" width="199.539" height="85.708" fill="#fff"/>
  <rect x="18.595" y="21.74" width="188.072" height="74.994" style="fill: rgb(255, 222, 89);"/>
  <rect x="257.933" y="15.714" width="117.849" height="117.849" fill="url(#b28a1e8f-be05-408d-a6f5-6fd2e5b0337f-2639)"/>
  <rect x="261.281" y="19.062" width="111.152" height="111.152" fill="#fff"/>
  <rect x="266.638" y="24.419" width="100.439" height="100.439" style="fill: rgb(255, 222, 89);"/>
  <rect x="280.699" y="155.659" width="156.015" height="117.849" fill="url(#f1fc4b36-2829-4464-83b0-fd2af5b19fd6-2640)"/>
  <rect x="284.047" y="159.007" width="149.32" height="111.152" fill="#fff"/>
  <rect x="289.404" y="164.364" width="138.606" height="100.439" style="fill: rgb(255, 222, 89);"/>
  <g transform="matrix(0.549175, 0, 0, 0.549175, 7.023794, 15.155916)">
    <path d="M 563.782 362.589 C 563.746 374.159 575.01 384.996 592.802 391.14 C 589.188 409.035 592.062 423.477 601.796 429.131 C 611.8 434.943 626.745 430.989 640.956 418.645 C 654.734 430.577 668.681 435.3 678.441 429.691 C 688.473 423.926 691.567 408.524 687.97 390.047 C 706.542 383.973 716.948 374.796 716.985 363.073 C 717.021 351.772 705.733 341.959 688.181 335.854 C 692.176 316.638 688.887 302.546 678.75 296.658 C 668.978 290.981 654.838 295.857 640.781 308.012 C 626.238 295.018 612.266 291.02 602.103 296.86 C 592.304 302.491 589.467 317.178 592.978 335.426 C 575.748 341.372 563.818 351.333 563.782 362.589 Z" fill="#fff"/>
    <path d="M 684.44 341.849 C 682.994 341.348 681.535 340.883 680.065 340.455 C 680.312 339.465 680.541 338.47 680.751 337.47 C 684.117 321.387 681.991 308.415 674.601 304.123 C 667.517 300.007 655.895 304.239 644.139 314.404 C 642.981 315.408 641.848 316.44 640.742 317.502 C 640.005 316.792 639.256 316.095 638.494 315.413 C 626.242 304.464 613.941 299.829 606.532 304.086 C 599.428 308.168 597.29 320.351 600.226 335.612 C 600.518 337.124 600.849 338.627 601.218 340.122 C 599.473 340.611 597.789 341.134 596.177 341.69 C 581.757 346.666 572.532 354.508 572.506 362.672 C 572.48 371.104 582.328 379.593 597.316 384.769 C 598.531 385.186 599.757 385.573 600.992 385.93 C 600.585 387.538 600.224 389.156 599.907 390.784 C 597.014 405.763 599.199 417.67 606.259 421.772 C 613.55 426.007 625.823 421.716 637.794 411.319 C 638.74 410.497 639.689 409.627 640.642 408.711 C 641.832 409.867 643.055 410.989 644.309 412.078 C 655.841 422.065 667.248 426.119 674.327 422.051 C 681.639 417.85 684.05 405.073 681.02 389.509 C 680.789 388.321 680.521 387.107 680.216 385.87 C 681.078 385.618 681.922 385.358 682.748 385.088 C 698.363 379.97 708.537 371.647 708.564 363.102 C 708.59 354.909 699.119 346.954 684.44 341.849 L 684.44 341.849 Z" fill="#53c1de"/>
    <path d="M 680.938 379.565 C 680.193 379.809 679.429 380.045 678.65 380.273 C 676.766 374.372 674.483 368.606 671.815 363.015 C 674.416 357.515 676.646 351.848 678.491 346.05 C 679.881 346.458 681.231 346.887 682.531 347.34 C 695.108 351.713 702.768 358.146 702.752 363.084 C 702.735 368.343 694.419 375.145 680.938 379.565 L 680.938 379.565 Z M 675.315 390.62 C 676.655 397.502 676.829 403.721 675.912 408.58 C 675.088 412.945 673.449 415.852 671.431 417.012 C 667.135 419.48 657.975 416.225 648.114 407.684 C 646.983 406.705 645.846 405.662 644.702 404.554 C 648.84 400.002 652.666 395.176 656.153 390.109 C 662.355 389.605 668.515 388.676 674.589 387.327 C 674.862 388.448 675.104 389.545 675.315 390.62 L 675.315 390.62 Z M 618.722 416.416 C 614.528 417.883 611.192 417.914 609.179 416.745 C 604.894 414.257 603.141 404.695 605.615 391.886 C 605.909 390.372 606.245 388.868 606.623 387.372 C 612.663 388.69 618.786 389.596 624.949 390.084 C 628.506 395.156 632.393 399.989 636.583 404.551 C 635.736 405.365 634.869 406.158 633.983 406.93 C 628.69 411.528 623.39 414.784 618.723 416.416 L 618.722 416.416 Z M 599.213 379.275 C 592.586 376.986 587.117 374.022 583.371 370.794 C 580.006 367.893 578.311 365.019 578.318 362.69 C 578.334 357.737 585.74 351.44 598.073 347.184 C 599.621 346.652 601.184 346.166 602.761 345.726 C 604.571 351.599 606.769 357.346 609.338 362.93 C 606.701 368.577 604.439 374.392 602.569 380.336 C 601.442 380.01 600.323 379.656 599.213 379.275 Z M 605.934 334.514 C 603.418 321.438 605.147 311.585 609.428 309.125 C 613.989 306.505 624.042 310.294 634.621 319.747 C 635.297 320.351 635.976 320.984 636.656 321.638 C 632.466 326.144 628.579 330.924 625.02 335.944 C 618.912 336.473 612.845 337.396 606.856 338.709 C 606.513 337.318 606.206 335.92 605.934 334.513 L 605.934 334.514 Z M 664.577 349.191 C 663.254 346.889 661.882 344.617 660.461 342.374 C 664.801 342.936 668.958 343.677 672.86 344.581 C 671.594 348.553 670.128 352.459 668.469 356.284 C 667.219 353.894 665.922 351.53 664.577 349.191 Z M 640.717 325.804 C 643.538 328.898 646.2 332.133 648.694 335.495 C 643.337 335.225 637.977 335.207 632.613 335.441 C 635.267 331.963 637.985 328.734 640.717 325.804 Z M 616.557 349.079 C 615.215 351.39 613.927 353.731 612.694 356.103 C 611.014 352.083 609.578 348.132 608.408 344.316 C 612.293 343.46 616.435 342.763 620.749 342.238 C 619.299 344.485 617.901 346.766 616.557 349.079 Z M 620.742 383.826 C 616.532 383.356 612.349 382.67 608.209 381.771 C 609.423 377.895 610.916 373.868 612.657 369.773 C 613.88 372.154 615.159 374.504 616.493 376.825 C 617.853 379.192 619.27 381.526 620.742 383.826 L 620.742 383.826 Z M 640.643 400.381 C 637.897 397.4 635.16 394.103 632.487 390.559 C 635.092 390.669 637.745 390.729 640.447 390.738 C 643.221 390.747 645.959 390.694 648.661 390.581 C 646.157 393.983 643.481 397.254 640.643 400.381 L 640.643 400.381 Z M 668.481 369.74 C 670.198 373.654 671.711 377.653 673.013 381.724 C 668.82 382.652 664.581 383.361 660.314 383.847 C 661.759 381.572 663.159 379.268 664.513 376.937 C 665.889 374.568 667.212 372.169 668.481 369.74 L 668.481 369.74 Z M 659.487 374.017 C 657.415 377.591 655.228 381.095 652.926 384.528 C 648.889 384.804 644.717 384.939 640.466 384.926 C 636.232 384.913 632.114 384.768 628.148 384.498 C 625.81 381.06 623.605 377.537 621.532 373.929 C 619.47 370.343 617.547 366.683 615.762 362.948 C 617.565 359.227 619.505 355.576 621.584 351.998 L 621.584 351.999 C 623.66 348.423 625.871 344.929 628.214 341.518 C 632.262 341.224 636.411 341.077 640.605 341.091 C 644.817 341.104 648.971 341.278 653.015 341.6 C 655.312 345.018 657.486 348.514 659.538 352.087 C 661.599 355.668 663.543 359.313 665.369 363.023 C 663.539 366.756 661.579 370.421 659.488 374.017 L 659.487 374.017 Z M 671.682 309.149 C 676.23 311.791 677.969 322.393 675.062 336.279 C 674.872 337.184 674.665 338.085 674.442 338.982 C 668.452 337.605 662.378 336.626 656.259 336.051 C 652.768 331.002 648.941 326.194 644.803 321.661 C 645.825 320.681 646.871 319.728 647.941 318.801 C 658.014 310.091 667.413 306.669 671.682 309.149 L 671.682 309.149 Z" fill="#fff"/>
    <path d="M 640.574 350.738 C 649.926 350.767 655.74 360.91 651.038 368.995 C 646.337 377.08 634.646 377.044 629.994 368.929 C 628.934 367.079 628.379 364.981 628.386 362.849 C 628.407 356.139 633.864 350.716 640.574 350.738" fill="#53c1de"/>
  </g>
  <g opacity="0.7" transform="matrix(-0.549175, 0, 0, 0.549175, 439.594818, 15.232918)">
    <g opacity="0.1">
      <polygon points="602.37 565.043 602.37 583.59 602.37 589.773 602.37 672.203 602.37 678.386 602.37 695.902 577.64 695.902 569.397 695.902 569.397 678.386 569.397 672.203 569.397 589.773 569.397 583.59 569.397 565.043 577.64 565.043 602.37 565.043" fill="url(#bb60ebe1-81e2-422a-a970-aa43062904da-2641)"/>
    </g>
    <g opacity="0.1">
      <polygon points="567.337 565.043 567.337 583.59 567.337 589.773 567.337 672.203 567.337 678.386 567.337 695.902 542.607 695.902 534.364 695.902 534.364 678.386 534.364 672.203 534.364 589.773 534.364 583.59 534.364 565.043 542.607 565.043 567.337 565.043" fill="url(#a1b2f907-b002-48c8-973d-a12b277f13d1-2642)"/>
    </g>
  </g>
  <rect x="-408.641" y="377.972" width="47.578" height="20.246" rx="14.297" fill="#ffc200" transform="matrix(-1, 0, 0, 1, 0, 0)"/>
  <g opacity="0.7" transform="matrix(-0.549175, 0, 0, 0.549175, 439.594818, 15.232918)">
    <g opacity="0.1">
      <polygon points="218.832 566.043 218.832 584.59 218.832 590.773 218.832 673.203 218.832 679.386 218.832 696.902 243.562 696.902 251.805 696.902 251.805 679.386 251.805 673.203 251.805 590.773 251.805 584.59 251.805 566.043 243.562 566.043 218.832 566.043" fill="url(#a8136d5f-4c26-4562-977f-ea29024932d1-2643)"/>
    </g>
    <g opacity="0.1">
      <polygon points="253.866 566.043 253.866 584.59 253.866 590.773 253.866 673.203 253.866 679.386 253.866 696.902 278.595 696.902 286.838 696.902 286.838 679.386 286.838 673.203 286.838 590.773 286.838 584.59 286.838 566.043 278.595 566.043 253.866 566.043" fill="url(#eaaf4b84-3353-429f-a894-84d4b3cd89b7-2644)"/>
    </g>
    <g opacity="0.1">
      <polygon points="352.601 688.383 325.251 585.838 325.251 585.838 323.658 579.865 323.658 579.865 318.878 561.944 287.019 570.441 291.799 588.362 291.799 588.362 293.068 593.119 314.635 673.982 314.635 673.982 316.228 679.955 316.228 679.955 320.742 696.88 352.601 688.383" fill="url(#fa1ca12c-a5d3-4b88-b665-ae3e1db189da-2645)"/>
    </g>
  </g>
  <rect x="-317.564" y="327.846" width="17.194" height="68.238" fill="#535461" transform="matrix(-1, 0, 0, 1, 0, 0)"/>
  <rect x="-317.564" y="337.518" width="17.194" height="3.224" fill="#ffc200" transform="matrix(-1, 0, 0, 1, 0, 0)"/>
  <rect x="-317.564" y="383.726" width="17.194" height="3.224" fill="#ffc200" transform="matrix(-1, 0, 0, 1, 0, 0)"/>
  <rect x="-304.669" y="327.846" width="4.298" height="68.238" opacity="0.1" transform="matrix(-1, 0, 0, 1, 0, 0)"/>
  <rect x="-299.295" y="327.846" width="17.194" height="68.238" fill="#535461" transform="matrix(-1, 0, 0, 1, 0, 0)"/>
  <rect x="-299.295" y="337.518" width="17.194" height="3.224" fill="#ffc200" transform="matrix(-1, 0, 0, 1, 0, 0)"/>
  <rect x="-299.295" y="383.726" width="17.194" height="3.224" fill="#ffc200" transform="matrix(-1, 0, 0, 1, 0, 0)"/>
  <rect x="-286.4" y="327.846" width="4.298" height="68.238" opacity="0.1" transform="matrix(-1, 0, 0, 1, 0, 0)"/>
  <rect x="-279.448" y="-358.218" width="17.194" height="68.238" transform="matrix(-0.966223, -0.257706, -0.257706, 0.966223, -80.316463, 604.241924)" fill="#535461"/>
  <rect x="-273.563" y="-368.661" width="17.194" height="3.224" transform="matrix(-0.966223, -0.257706, -0.257706, 0.966223, -79.813764, 625.193874)" fill="#ffc200"/>
  <rect x="-285.471" y="-413.309" width="17.194" height="3.224" transform="matrix(-0.966223, -0.257706, -0.257706, 0.966223, -114.733713, 709.913026)" fill="#ffc200"/>
  <rect x="-292.126" y="-356.557" width="4.298" height="68.238" transform="matrix(-0.966223, -0.257706, -0.257706, 0.966223, -104.598553, 596.047134)" opacity="0.1"/>
  <rect x="111.094" y="-396.084" width="17.194" height="68.238" transform="matrix(1, 0, 0, -1, 0, 0)" fill="#535461"/>
  <rect x="111.094" y="-340.742" width="17.194" height="3.224" transform="matrix(1, 0, 0, -1, 0, 0)" fill="#ffc200"/>
  <rect x="111.094" y="-386.95" width="17.194" height="3.224" transform="matrix(1, 0, 0, -1, 0, 0)" fill="#ffc200"/>
  <rect x="123.989" y="-396.084" width="4.298" height="68.238" transform="matrix(1, 0, 0, -1, 0, 0)" opacity="0.1"/>
  <rect x="129.362" y="-396.084" width="17.194" height="68.238" transform="matrix(1, 0, 0, -1, 0, 0)" fill="#535461"/>
  <rect x="129.362" y="-340.742" width="17.194" height="3.224" transform="matrix(1, 0, 0, -1, 0, 0)" fill="#ffc200"/>
  <rect x="129.362" y="-386.95" width="17.194" height="3.224" transform="matrix(1, 0, 0, -1, 0, 0)" fill="#ffc200"/>
  <rect x="142.257" y="-396.084" width="4.298" height="68.238" transform="matrix(1, 0, 0, -1, 0, 0)" opacity="0.1"/>
  <path d="M 24.495 402.514 L 86.832 402.514 C 86.832 402.514 99.13 386.823 80.047 363.499 L 30.856 363.499 C 30.856 363.499 13.045 379.614 24.495 402.514 Z" fill="#ffc200" transform="matrix(-1, 0, 0, -1, 111.387596, 766.013)"/>
  <g opacity="0.1" transform="matrix(-0.549175, 0, 0, 0.549175, 439.594818, 15.232918)">
    <path d="M962.16574,719.16264H848.65412c-.2586.51721-.50274,1.031-.74508,1.54438H958.3048s21.844,27.88077-11.11731,69.4969h2.62324C984.55919,747.73359,962.16574,719.16264,962.16574,719.16264Z" transform="translate(-206.41535 -85)"/>
  </g>
  <rect y="395.482" width="432.294" height="14.654" fill="#e0e0e0" x="-439.595" transform="matrix(-1, 0, 0, 1, 0, 0)"/>
  <rect x="-421.277" y="410.136" width="395.659" height="5.995" fill="#e0e0e0" transform="matrix(-1, 0, 0, 1, 0, 0)"/>
  <rect x="-421.277" y="410.136" width="395.659" height="1.998" opacity="0.1" transform="matrix(-1, 0, 0, 1, 0, 0)"/>
  <g transform="matrix(0.37162, 0, 0, 0.37162, 126.464386, 52.063694)" style="">
    <rect width="125.612" height="125.612" fill="#f7df1e" style="" x="501.722" y="48.67"/>
    <path d="M 586.102 146.805 C 588.632 150.937 591.924 153.973 597.746 153.973 C 602.637 153.973 605.761 151.529 605.761 148.151 C 605.761 144.104 602.551 142.67 597.168 140.315 L 594.217 139.049 C 585.699 135.421 580.041 130.875 580.041 121.264 C 580.041 112.412 586.786 105.672 597.327 105.672 C 604.832 105.672 610.228 108.284 614.116 115.123 L 604.924 121.025 C 602.9 117.396 600.717 115.967 597.327 115.967 C 593.87 115.967 591.679 118.16 591.679 121.025 C 591.679 124.566 593.872 126 598.936 128.193 L 601.887 129.457 C 611.916 133.758 617.579 138.142 617.579 148 C 617.579 158.627 609.231 164.449 598.019 164.449 C 587.057 164.449 579.975 159.225 576.51 152.378 L 586.102 146.805 Z M 544.405 147.828 C 546.259 151.118 547.946 153.899 552.001 153.899 C 555.879 153.899 558.326 152.382 558.326 146.482 L 558.326 106.346 L 570.129 106.346 L 570.129 146.642 C 570.129 158.864 562.963 164.427 552.504 164.427 C 543.053 164.427 537.58 159.536 534.796 153.645 L 544.405 147.828 Z" style=""/>
  </g>
  <g transform="matrix(0.549175, 0, 0, 0.549175, 21.244558, -1.055646)">
    <g id="layer1" transform="matrix(0.164238, 0, 0, 0.164238, 73.494591, 23.369371)" style="">
      <g id="g3013" transform="translate(95.428571,270.18109)">
        <polygon id="polygon2989" points="255.778,512 107.644,470.877 74.633,100.62 437.367,100.62 404.321,470.819 " style="fill:#264de4"/>
        <polygon id="polygon2991" points="376.03,447.246 404.27,130.894 256,130.894 256,480.523 " style="fill:#2965f1"/>
        <polygon id="polygon2993" points="150.31,268.217 154.38,313.627 256,313.627 256,268.217 " style="fill:#ebebeb"/>
        <polygon id="polygon2995" points="142.132,176.305 146.26,221.716 256,221.716 256,176.305 255.843,176.305 " style="fill:#ebebeb"/>
        <polygon id="polygon2997" points="256,386.153 255.801,386.206 205.227,372.55 201.994,336.333 177.419,336.333 156.409,336.333 162.771,407.634 255.791,433.457 256,433.399 " style="fill:#ebebeb"/>
        <path id="path2999" d="m 160,0 h 55 v 23 h -32 v 23 h 32 v 23 h -55 z"/>
        <path id="path3001" d="m 226,0 h 55 v 20 h -32 v 4 h 32 V 70 H 226 V 49 h 32 v -4 h -32 z"/>
        <path id="path3003" d="m 292,0 h 55 v 20 h -32 v 4 h 32 V 70 H 292 V 49 h 32 v -4 h -32 z"/>
        <polygon id="polygon3005" points="361.399,268.217 369.597,176.305 255.843,176.305 255.843,221.716 319.831,221.716 315.699,268.217 255.843,268.217 255.843,313.627 311.761,313.627 306.49,372.521 255.843,386.191 255.843,433.435 348.937,407.634 349.62,399.962 360.291,280.411 " style="fill:#ffffff"/>
      </g>
      <g id="g3054" transform="translate(524,270.18109)">
        <polygon id="polygon3028" points="437.367,100.62 404.321,470.819 255.778,512 107.644,470.877 74.633,100.62 " style="fill:#e44d26"/>
        <polygon id="polygon3030" points="256,480.523 376.03,447.246 404.27,130.894 256,130.894 " style="fill:#f16529"/>
        <polygon id="polygon3032" points="191.76,221.716 256,221.716 256,176.305 255.843,176.305 142.132,176.305 143.219,188.488 154.38,313.627 256,313.627 256,268.217 195.91,268.217 " style="fill:#ebebeb"/>
        <polygon id="polygon3034" points="201.994,336.333 177.419,336.333 156.409,336.333 162.771,407.634 255.791,433.457 256,433.399 256,386.153 255.801,386.206 205.227,372.55 " style="fill:#ebebeb"/>
        <path id="path3036" d="m 108.382,0 h 23.077 v 22.8 h 21.11 V 0 h 23.078 V 69.044 H 152.57 v -23.12 h -21.11 v 23.12 H 108.383 V 0 z"/>
        <path id="path3038" d="M 205.994,22.896 H 185.678 V 0 h 63.72 V 22.896 H 229.073 V 69.044 H 205.995 V 22.896 z"/>
        <path id="path3040" d="m 259.511,0 h 24.063 L 298.376,24.26 313.163,0 h 24.072 V 69.044 H 314.253 V 34.822 l -15.877,24.549 h -0.397 L 282.091,34.822 v 34.222 h -22.58 V 0 z"/>
        <path id="path3042" d="m 348.72,0 h 23.084 v 46.222 h 32.453 V 69.044 H 348.72 V 0 z"/>
        <polygon id="polygon3044" points="255.843,313.627 311.761,313.627 306.49,372.521 255.843,386.191 255.843,433.435 348.937,407.634 349.62,399.962 360.291,280.411 361.399,268.217 349.162,268.217 255.843,268.217 " style="fill:#ffffff"/>
        <polygon id="polygon3046" points="255.843,221.605 255.843,221.716 365.385,221.716 365.385,221.716 365.531,221.716 366.442,211.509 368.511,188.488 369.597,176.305 255.843,176.305 255.843,204.509 " style="fill:#ffffff"/>
      </g>
    </g>
  </g>
  <g style="" transform="matrix(0.091172, 0, 0, 0.091172, 239.404068, 27.219414)">
    <rect width="512" height="512" rx="50" fill="#3178c6" x="403.891" y="97.924"/>
    <path d="M 720.891 504.924 L 720.891 554.924 C 728.991 559.124 738.891 562.224 749.891 564.324 C 760.891 566.424 772.891 567.424 784.891 567.424 C 796.891 567.424 807.891 566.324 818.891 564.024 C 829.891 561.724 838.891 557.924 846.891 553.024 C 854.991 547.724 861.891 541.024 865.891 532.024 C 869.891 523.024 872.991 513.024 872.991 500.024 C 872.991 490.924 871.591 483.024 868.891 476.024 C 866.191 469.024 862.291 463.024 856.891 458.024 C 851.791 452.724 845.891 448.024 838.891 444.024 C 831.891 440.024 823.891 435.824 814.891 432.024 C 808.291 429.324 802.891 426.724 796.891 424.124 C 791.691 421.524 787.191 418.924 783.891 416.324 C 780.191 413.624 777.391 410.824 775.391 407.924 C 773.391 404.924 772.391 401.624 772.391 397.924 C 772.391 394.524 773.281 391.424 775.091 388.624 C 776.901 385.824 779.391 383.524 782.591 381.524 C 785.791 379.524 789.791 378.024 794.591 376.924 C 799.291 375.824 804.491 375.324 810.591 375.324 C 814.791 375.324 819.191 375.634 823.591 376.264 C 828.191 376.894 832.891 377.864 837.591 379.164 C 842.291 380.464 846.891 382.064 851.591 384.064 C 855.991 386.064 860.091 388.364 863.591 390.964 L 863.591 343.964 C 855.991 341.064 847.591 338.864 838.591 337.464 C 829.591 336.064 819.591 335.364 807.591 335.364 C 795.591 335.364 784.591 336.664 773.591 339.164 C 762.591 341.664 753.591 345.664 745.591 351.164 C 737.491 356.564 731.591 363.164 726.591 372.164 C 721.891 380.564 719.591 390.164 719.591 402.164 C 719.591 417.164 723.891 430.164 732.591 440.164 C 741.191 451.164 754.591 459.164 771.591 467.164 C 778.491 469.964 784.591 472.764 790.591 475.464 C 796.591 478.164 801.591 480.964 805.591 483.864 C 809.891 486.764 813.291 489.964 815.591 493.364 C 818.091 496.764 819.391 500.764 819.391 505.364 C 819.391 508.564 818.611 511.564 817.091 514.364 C 815.571 517.164 813.191 519.564 809.991 521.564 C 806.791 523.564 802.891 525.164 797.991 526.364 C 793.291 527.464 787.991 528.064 780.991 528.064 C 769.991 528.064 758.991 526.164 748.991 522.364 C 737.991 518.564 727.991 512.864 718.991 505.364 L 720.891 504.924 Z M 636.891 381.924 L 700.891 381.924 L 700.891 340.924 L 521.891 340.924 L 521.891 381.924 L 585.891 381.924 L 585.891 564.924 L 636.891 564.924 L 636.891 381.924 Z" clip-rule="evenodd" fill="#fff" fill-rule="evenodd" style="fill:#fff"/>
  </g>
  <g style="" transform="matrix(0.253024, 0, 0, 0.253024, -6.461284, 95.095604)">
    <path fill="#689f63" d="M 657.353 489.389 C 655.893 489.389 654.443 489.006 653.163 488.269 L 639.826 480.373 C 637.834 479.259 638.806 478.865 639.463 478.638 C 642.119 477.708 642.658 477.498 645.493 475.888 C 645.791 475.718 646.181 475.778 646.486 475.958 L 656.732 482.038 C 657.102 482.238 657.627 482.238 657.97 482.038 L 697.92 458.978 C 698.29 458.768 698.53 458.338 698.53 457.898 L 698.53 411.798 C 698.53 411.338 698.29 410.928 697.912 410.698 L 657.978 387.658 C 657.608 387.438 657.118 387.438 656.748 387.658 L 616.822 410.698 C 616.435 410.918 616.189 411.348 616.189 411.788 L 616.189 457.888 C 616.189 458.328 616.429 458.748 616.809 458.958 L 627.749 465.278 C 633.689 468.248 637.319 464.748 637.319 461.228 L 637.319 415.728 C 637.319 415.078 637.829 414.578 638.479 414.578 L 643.539 414.578 C 644.169 414.578 644.689 415.078 644.689 415.728 L 644.689 461.248 C 644.689 469.168 640.369 473.718 632.859 473.718 C 630.549 473.718 628.729 473.718 623.649 471.218 L 613.169 465.178 C 610.579 463.678 608.979 460.878 608.979 457.888 L 608.979 411.788 C 608.979 408.788 610.579 405.988 613.169 404.508 L 653.159 381.438 C 655.689 380.008 659.049 380.008 661.559 381.438 L 701.499 404.518 C 704.079 406.008 705.689 408.798 705.689 411.798 L 705.689 457.898 C 705.689 460.888 704.079 463.678 701.499 465.178 L 661.559 488.248 C 660.279 488.988 658.829 489.368 657.349 489.368"/>
    <path fill="#689f63" d="M 669.693 457.623 C 652.213 457.623 648.548 449.599 648.548 442.869 C 648.548 442.229 649.064 441.719 649.705 441.719 L 654.865 441.719 C 655.435 441.719 655.915 442.134 656.005 442.697 C 656.785 447.955 659.105 450.607 669.675 450.607 C 678.095 450.607 681.675 448.705 681.675 444.24 C 681.675 441.67 680.655 439.76 667.575 438.48 C 656.635 437.4 649.875 434.99 649.875 426.24 C 649.875 418.18 656.675 413.38 668.065 413.38 C 680.855 413.38 687.195 417.82 687.995 427.36 C 688.025 427.69 687.905 428.01 687.685 428.25 C 687.465 428.48 687.155 428.62 686.835 428.62 L 681.645 428.62 C 681.105 428.62 680.635 428.24 680.525 427.72 C 679.275 422.19 676.255 420.42 668.045 420.42 C 658.855 420.42 657.785 423.62 657.785 426.02 C 657.785 428.93 659.045 429.78 671.445 431.42 C 683.725 433.05 689.555 435.35 689.555 443.98 C 689.555 452.68 682.295 457.67 669.635 457.67 M 718.295 408.78 L 719.635 408.78 C 720.735 408.78 720.945 408.01 720.945 407.56 C 720.945 406.38 720.135 406.38 719.685 406.38 L 718.305 406.38 L 718.295 408.78 Z M 716.665 405 L 719.635 405 C 720.655 405 722.655 405 722.655 407.28 C 722.655 408.87 721.635 409.2 721.025 409.4 C 722.215 409.48 722.295 410.26 722.455 411.36 C 722.535 412.05 722.665 413.24 722.905 413.64 L 721.075 413.64 C 721.025 413.24 720.745 411.04 720.745 410.92 C 720.625 410.43 720.455 410.19 719.845 410.19 L 718.335 410.19 L 718.335 413.65 L 716.665 413.65 L 716.665 405 Z M 713.095 409.3 C 713.095 412.88 715.985 415.78 719.535 415.78 C 723.115 415.78 726.005 412.82 726.005 409.3 C 726.005 405.71 723.075 402.86 719.525 402.86 C 716.025 402.86 713.085 405.67 713.085 409.29 M 727.245 409.32 C 727.245 413.56 723.775 417.02 719.545 417.02 C 715.345 417.02 711.845 413.6 711.845 409.32 C 711.845 404.96 715.425 401.62 719.545 401.62 C 723.695 401.62 727.235 404.97 727.235 409.32"/>
    <path fill="#333" fill-rule="evenodd" d="M 533.642 309.009 C 533.642 307.169 532.672 305.479 531.084 304.564 L 488.728 280.194 C 488.013 279.774 487.212 279.554 486.4 279.524 L 485.962 279.524 C 485.15 279.554 484.349 279.774 483.622 280.194 L 441.268 304.564 C 439.69 305.484 438.706 307.174 438.706 309.014 L 438.799 374.654 C 438.799 375.564 439.269 376.414 440.069 376.864 C 440.849 377.344 441.829 377.344 442.609 376.864 L 467.789 362.444 C 469.379 361.498 470.349 359.826 470.349 358.004 L 470.349 327.339 C 470.349 325.509 471.319 323.819 472.904 322.909 L 483.624 316.735 C 484.42 316.275 485.294 316.047 486.184 316.047 C 487.06 316.047 487.954 316.273 488.728 316.734 L 499.443 322.906 C 501.029 323.816 502.003 325.506 502.003 327.336 L 502.003 357.999 C 502.003 359.819 502.986 361.499 504.568 362.439 L 529.732 376.849 C 530.522 377.319 531.505 377.319 532.292 376.849 C 533.068 376.399 533.56 375.549 533.56 374.639 L 533.642 309.009 Z M 733.51 343.185 C 733.51 343.642 733.267 344.065 732.87 344.291 L 718.322 352.677 C 717.927 352.904 717.439 352.904 717.045 352.677 L 702.495 344.291 C 702.095 344.064 701.855 343.641 701.855 343.185 L 701.855 326.389 C 701.855 325.931 702.095 325.509 702.485 325.279 L 717.025 316.879 C 717.425 316.649 717.915 316.649 718.315 316.879 L 732.865 325.279 C 733.265 325.509 733.505 325.931 733.505 326.389 L 733.51 343.185 Z M 737.44 218.783 C 736.646 218.341 735.68 218.353 734.896 218.81 C 734.116 219.27 733.634 220.11 733.634 221.02 L 733.634 286.02 C 733.634 286.66 733.294 287.25 732.74 287.57 C 732.19 287.89 731.505 287.89 730.95 287.57 L 720.34 281.459 C 718.76 280.545 716.814 280.545 715.228 281.459 L 672.858 305.912 C 671.275 306.822 670.298 308.512 670.298 310.332 L 670.298 359.252 C 670.298 361.082 671.275 362.762 672.858 363.682 L 715.228 388.152 C 716.81 389.062 718.758 389.062 720.345 388.152 L 762.715 363.672 C 764.295 362.752 765.275 361.072 765.275 359.242 L 765.275 237.322 C 765.275 235.466 764.265 233.759 762.645 232.852 L 737.44 218.783 Z M 878.533 325.947 C 880.107 325.033 881.076 323.345 881.076 321.525 L 881.076 309.669 C 881.076 307.845 880.106 306.162 878.529 305.244 L 836.429 280.804 C 834.839 279.884 832.889 279.884 831.299 280.804 L 788.939 305.254 C 787.349 306.174 786.379 307.854 786.379 309.684 L 786.379 358.584 C 786.379 360.424 787.369 362.124 788.959 363.034 L 831.049 387.024 C 832.599 387.914 834.499 387.924 836.069 387.054 L 861.529 372.904 C 862.329 372.454 862.839 371.604 862.839 370.684 C 862.839 369.764 862.349 368.904 861.549 368.454 L 818.929 343.994 C 818.129 343.544 817.639 342.694 817.639 341.784 L 817.639 326.444 C 817.639 325.528 818.119 324.684 818.919 324.228 L 832.179 316.578 C 832.969 316.118 833.939 316.118 834.729 316.578 L 847.999 324.228 C 848.789 324.678 849.279 325.528 849.279 326.438 L 849.279 338.498 C 849.279 339.408 849.769 340.258 850.559 340.718 C 851.349 341.168 852.329 341.168 853.119 340.708 L 878.533 325.947 Z M 878.533 325.947"/>
    <path fill="#689f63" fill-rule="evenodd" d="M 833.244 323.659 C 833.544 323.482 833.92 323.482 834.224 323.659 L 842.354 328.349 C 842.658 328.525 842.844 328.849 842.844 329.199 L 842.844 338.589 C 842.844 338.939 842.658 339.263 842.354 339.439 L 834.224 344.129 C 833.92 344.306 833.544 344.306 833.244 344.129 L 825.119 339.439 C 824.809 339.263 824.619 338.939 824.619 338.589 L 824.619 329.199 C 824.619 328.849 824.799 328.525 825.109 328.349 L 833.244 323.659 Z M 833.244 323.659"/>
    <g clip-path="url(#a)" transform="matrix(1, 0, 0, 1, 360.39975, 54.443195)">
      <path fill="url(#b)" d="M331.363 246.793l-118.715-58.19-60.87 124.174L270.49 370.97zm0 0"/>
    </g>
    <g clip-path="url(#c)" transform="matrix(1, 0, 0, 1, 360.39975, 54.443195)">
      <path fill="url(#d)" d="M144.07 264.004l83.825 113.453 110.86-81.906-83.83-113.45zm0 0"/>
    </g>
    <g clip-path="url(#e)" transform="matrix(1, 0, 0, 1, 360.39975, 54.443195)">
      <path fill="url(#f)" d="M197.02 225.934v107.43h91.683v-107.43zm0 0"/>
    </g>
  </g>
  <path d="M 144.867 253.286 L 144.867 235.263 L 145.845 235.263 L 145.845 238.098 C 145.961 237.972 146.067 237.838 146.164 237.698 C 146.98 236.004 148.703 234.935 150.583 234.956 C 152.812 234.89 154.623 235.715 155.687 237.698 C 157.062 240.198 157.141 243.209 155.9 245.778 C 154.908 248 152.459 249.105 149.837 248.699 C 148.179 248.559 146.705 247.586 145.923 246.117 L 145.923 253.285 L 144.867 253.286 Z M 145.845 241.638 L 146.064 243.755 C 146.45 246.163 147.875 247.587 150.11 247.854 C 152.276 248.21 154.391 246.987 155.162 244.932 C 156.031 242.86 155.967 240.513 154.99 238.49 C 154.17 236.655 152.233 235.585 150.244 235.867 C 148.381 236.003 146.808 237.303 146.324 239.108 C 146.116 239.941 145.956 240.786 145.845 241.638 Z M 176.735 244.088 C 176.428 246.712 174.226 248.704 171.584 248.746 C 167.484 248.953 165.56 246.23 165.254 243.089 C 165.041 241.382 165.318 239.652 166.053 238.097 C 167.101 235.909 169.447 234.651 171.849 234.989 C 174.132 235.183 176.036 236.815 176.574 239.043 C 176.783 240.032 176.936 241.031 177.034 242.038 L 166.267 242.038 C 166.068 244.886 167.598 247.176 169.767 247.728 C 172.469 248.393 174.779 247.222 175.617 244.653 C 175.803 243.994 176.143 243.901 176.742 244.088 L 176.735 244.088 Z M 166.259 241.126 L 175.89 241.126 C 175.829 238.092 173.939 235.886 171.377 235.861 C 168.483 235.814 166.385 237.931 166.259 241.126 Z M 178.725 244.154 L 179.669 244.154 C 179.74 245.572 180.598 246.831 181.892 247.416 C 183.506 248.142 185.363 248.093 186.937 247.283 C 187.804 246.892 188.336 246.001 188.268 245.053 C 188.318 244.135 187.753 243.295 186.884 242.996 C 185.845 242.61 184.741 242.397 183.683 242.057 C 182.581 241.744 181.505 241.35 180.461 240.88 C 178.756 240.047 178.651 236.807 180.581 235.781 C 182.59 234.647 185.035 234.61 187.077 235.68 C 188.323 236.369 189.013 237.758 188.807 239.169 L 187.998 239.169 C 187.998 239.13 187.925 239.095 187.925 239.055 C 187.824 236.474 185.655 235.667 183.326 235.894 C 182.622 235.972 181.955 236.185 181.329 236.499 C 180.559 236.851 180.095 237.652 180.172 238.496 C 180.174 239.34 180.707 240.092 181.503 240.373 C 182.52 240.746 183.599 240.985 184.651 241.278 L 187.193 241.942 C 188.375 242.33 189.196 243.408 189.255 244.652 C 189.459 246.016 188.763 247.357 187.532 247.979 C 185.31 249.237 181.649 248.904 180.018 247.314 C 179.184 246.475 178.718 245.336 178.728 244.153 L 178.725 244.154 Z M 201.233 239.169 L 200.348 239.169 C 200.348 239.049 200.301 238.935 200.287 238.843 C 200.259 237.475 199.276 236.314 197.931 236.061 C 196.701 235.709 195.389 235.771 194.197 236.241 C 193.231 236.518 192.561 237.399 192.554 238.404 C 192.519 239.395 193.186 240.274 194.151 240.507 L 198.197 241.546 C 198.635 241.651 199.066 241.782 199.488 241.939 C 200.778 242.408 201.654 243.606 201.693 244.976 C 201.733 246.347 200.925 247.602 199.66 248.135 C 197.761 248.998 195.586 249.019 193.67 248.195 C 192.073 247.507 191.075 245.898 191.167 244.162 L 192.032 244.162 C 192.357 245.73 193.434 247.036 194.911 247.654 C 196.389 248.272 198.076 248.12 199.42 247.25 C 200.243 246.822 200.742 245.954 200.698 245.028 C 200.739 244.109 200.165 243.274 199.293 242.984 C 198.254 242.598 197.15 242.392 196.092 242.046 C 194.984 241.736 193.901 241.347 192.851 240.881 C 191.186 240.063 191.053 236.848 192.951 235.823 C 194.987 234.64 197.493 234.613 199.553 235.749 C 200.737 236.456 201.393 237.795 201.224 239.164 L 201.233 239.169 Z M 143.259 248.421 C 142.538 248.693 141.727 248.385 141.368 247.702 L 137.927 242.944 L 137.428 242.279 L 133.435 247.709 C 133.099 248.362 132.329 248.664 131.638 248.415 L 136.782 241.513 L 131.996 235.277 C 132.706 235.021 133.498 235.299 133.893 235.942 L 137.459 240.759 L 141.046 235.96 C 141.385 235.318 142.153 235.031 142.83 235.295 L 140.973 237.759 L 138.457 241.034 C 138.161 241.298 138.161 241.761 138.457 242.025 L 143.248 248.421 L 143.259 248.421 Z M 165.102 235.211 L 165.102 236.149 C 162.251 235.962 159.864 238.278 159.964 241.134 C 159.964 243.325 159.964 245.517 159.964 247.709 L 159.964 248.455 L 159.012 248.455 L 159.012 235.269 L 159.95 235.269 L 159.95 237.971 C 161.101 236 162.878 235.269 165.108 235.216 L 165.102 235.211 Z M 119.32 241.427 L 119.739 239.357 C 120.89 235.263 125.582 233.56 128.81 236.096 C 130.701 237.58 131.172 239.683 131.08 242.053 L 120.431 242.053 C 120.259 246.285 123.313 248.841 127.219 247.536 C 128.506 247.067 129.476 245.998 129.795 244.668 C 130.001 244.003 130.342 243.889 130.966 244.081 C 130.756 245.723 129.804 247.178 128.384 248.028 C 126.009 249.328 123.068 248.952 121.096 247.097 C 120.145 246.028 119.571 244.677 119.459 243.249 C 119.459 243.014 119.381 242.796 119.326 242.584 C 119.321 242.19 119.318 241.804 119.318 241.427 L 119.32 241.427 Z M 120.444 241.141 L 130.075 241.141 C 130.014 238.073 128.078 235.896 125.496 235.876 C 122.621 235.837 120.564 237.966 120.437 241.127 L 120.444 241.141 Z"/>
  <title>TypeScript logo</title>
  <g transform="matrix(1, 0, 0, 1, -11.306991, 8.725078)">
    <path d="M 84.021 513.571 C 92.301 516.481 101.498 514.861 108.285 509.297 C 116.783 502.164 119.447 490.413 121.615 479.531 C 123.753 468.804 125.891 458.075 128.028 447.347 L 114.603 456.591 C 104.948 463.239 95.076 470.1 88.391 479.729 C 81.706 489.358 78.788 502.502 84.159 512.921" fill="#e6e6e6" style=""/>
    <path d="M 85.168 552.537 C 83.81 542.639 82.413 532.615 83.366 522.611 C 84.212 513.726 86.922 505.049 92.441 497.934 C 95.37 494.164 98.934 490.934 102.973 488.39 C 104.026 487.725 104.996 489.394 103.948 490.056 C 96.958 494.473 91.553 500.995 88.51 508.682 C 85.149 517.23 84.61 526.548 85.189 535.629 C 85.54 541.12 86.281 546.575 87.029 552.024 C 87.152 552.535 86.857 553.054 86.356 553.211 C 85.842 553.349 85.313 553.048 85.168 552.537 Z" fill="#f2f2f2" style=""/>
    <path d="M 98.257 535.023 C 101.807 540.42 107.916 543.573 114.372 543.34 C 122.531 542.954 129.332 537.259 135.454 531.854 L 153.564 515.865 L 141.578 515.291 C 132.959 514.879 124.118 514.494 115.909 517.152 C 107.699 519.81 100.128 526.207 98.627 534.704" fill="#e6e6e6" style=""/>
    <path d="M 81.328 558.227 C 87.869 546.654 95.455 533.793 109.01 529.682 C 112.779 528.543 116.731 528.135 120.653 528.48 C 121.889 528.586 121.58 530.492 120.347 530.386 C 113.772 529.84 107.21 531.576 101.766 535.301 C 96.527 538.867 92.448 543.825 88.995 549.082 C 86.881 552.303 84.986 555.66 83.092 559.012 C 82.486 560.084 80.716 559.311 81.328 558.227 Z" fill="#f2f2f2" style=""/>
    <path d="M 70.85 570.408 C 71.298 565.203 74.607 560.68 79.432 558.677 L 79.432 551.987 L 90.653 551.987 L 90.653 558.888 C 95.234 560.988 98.333 565.387 98.768 570.408 L 101.406 601.079 L 68.211 601.079 L 70.85 570.408 Z" fill="#f2f2f2" style=""/>
  </g>
  <g transform="matrix(1, 0, 0, 1, -28.116911, -158.039932)">
    <path d="M 260.179 767.844 C 259.449 767.054 258.719 766.264 258.009 765.464 C 251.683 758.469 246.183 750.768 241.619 742.514 C 236.733 733.565 233.284 723.904 231.399 713.884 C 227.659 693.954 230.329 673.054 241.519 656.454 C 241.799 656.034 242.089 655.614 242.389 655.194 C 242.529 655.714 242.679 656.224 242.839 656.744 C 244.877 663.78 247.482 670.639 250.629 677.254 C 250.859 677.774 251.109 678.284 251.369 678.794 C 259.092 694.61 269.685 708.855 282.609 720.804 C 285.539 723.514 288.576 726.091 291.719 728.534 L 291.719 728.544 C 294.149 730.414 296.636 732.207 299.179 733.924 C 309.859 741.104 322.489 747.984 326.199 760.304 C 326.703 761.984 327.022 763.714 327.149 765.464 C 327.213 766.255 327.236 767.05 327.219 767.844 L 260.179 767.844 Z" fill="#e6e6e6"/>
    <path d="M 307.399 767.844 L 306.039 767.844 C 306.029 767.694 305.999 767.534 305.979 767.384 C 305.879 766.734 305.759 766.094 305.619 765.464 C 304.509 760.564 302.009 756.044 297.499 753.474 C 296.01 752.643 294.43 751.989 292.789 751.524 C 289.559 750.544 286.139 750.104 282.859 749.444 C 282.009 749.274 281.169 749.074 280.349 748.854 C 276.142 747.821 272.204 745.902 268.799 743.224 C 264.629 739.701 261.089 735.494 258.329 730.784 C 256.497 727.81 254.815 724.746 253.289 721.604 C 253.079 721.194 252.879 720.794 252.689 720.384 C 249.15 712.847 246.386 704.97 244.439 696.874 C 243.428 692.716 242.641 688.506 242.079 684.264 C 240.838 675.045 240.65 665.715 241.519 656.454 C 241.549 656.034 241.599 655.614 241.639 655.194 C 241.729 654.324 243.049 654.634 242.959 655.494 C 242.919 655.914 242.879 656.324 242.839 656.744 C 242.009 665.637 242.17 674.596 243.319 683.454 C 243.369 683.904 243.429 684.344 243.499 684.794 C 245.192 697.083 248.781 709.035 254.139 720.224 C 254.189 720.344 254.249 720.454 254.299 720.574 C 254.309 720.584 254.309 720.584 254.309 720.594 C 255.569 723.194 256.926 725.741 258.379 728.234 C 261.021 733.022 264.399 737.365 268.389 741.104 C 271.763 744.089 275.786 746.246 280.139 747.404 C 280.569 747.524 281.009 747.644 281.449 747.744 C 281.799 747.834 282.149 747.914 282.509 747.984 C 285.849 748.694 289.309 749.144 292.619 750.064 C 294.124 750.476 295.589 751.018 296.999 751.684 C 301.653 754.024 305.09 758.235 306.449 763.264 C 306.669 763.994 306.849 764.724 306.999 765.464 C 307.172 766.25 307.306 767.044 307.399 767.844 Z" fill="#fff"/>
    <path d="M 253.885 721.378 C 245.658 724.727 236.216 721.623 231.581 714.045 C 231.13 713.301 232.264 712.565 232.717 713.31 C 237.021 720.377 245.833 723.254 253.478 720.088 C 254.283 719.756 254.685 721.048 253.885 721.378 Z" fill="#fff"/>
    <path d="M 279.974 747.793 C 283.46 739.722 283.776 730.633 280.859 722.34 C 280.569 721.518 281.86 721.112 282.149 721.932 C 285.168 730.569 284.82 740.026 281.174 748.417 C 280.826 749.216 279.628 748.588 279.974 747.793 Z" fill="#fff"/>
    <path d="M 242.902 683.545 C 246.299 682.923 249.154 680.635 250.502 677.456 C 250.84 676.652 252.038 677.281 251.702 678.08 C 250.197 681.584 247.054 684.114 243.309 684.835 C 242.954 684.935 242.583 684.742 242.461 684.394 C 242.35 684.038 242.547 683.659 242.902 683.545 Z" fill="#fff"/>
    <path d="M 350.889 767.844 L 295.779 767.844 C 295.589 767.054 295.409 766.264 295.239 765.464 C 294.229 760.844 293.399 756.194 292.789 751.524 C 292.729 751.044 292.659 750.554 292.619 750.064 C 291.73 742.927 291.429 735.73 291.719 728.544 L 291.719 728.534 C 291.887 724.601 292.254 720.679 292.819 716.784 C 294.3 706.711 297.357 696.935 301.879 687.814 L 301.939 687.694 C 310.959 669.564 325.659 654.524 344.559 648.014 C 345.049 647.844 345.519 647.684 346.009 647.524 C 345.819 648.024 345.629 648.524 345.439 649.034 C 345.439 649.044 345.429 649.054 345.429 649.064 C 342.823 655.901 340.773 662.937 339.299 670.104 L 339.299 670.114 C 339.179 670.664 339.069 671.224 338.959 671.784 C 335.609 689.1 335.5 706.888 338.639 724.244 C 338.649 724.274 338.649 724.304 338.659 724.334 C 339.914 731.208 341.686 737.977 343.959 744.584 C 346.299 751.374 349.189 758.444 350.509 765.464 C 350.659 766.264 350.789 767.054 350.889 767.844 Z" fill="#e6e6e6"/>
    <path d="M 346.289 648.104 C 345.999 648.414 345.719 648.724 345.439 649.034 C 339.422 655.637 334.156 662.888 329.739 670.654 C 329.509 671.034 329.289 671.434 329.079 671.824 C 323.03 682.653 318.699 694.356 316.239 706.514 C 316.209 706.644 316.179 706.774 316.159 706.914 C 315.599 709.744 315.149 712.594 314.809 715.464 C 314.029 720.879 314.11 726.384 315.049 731.774 C 315.948 736.186 317.862 740.329 320.639 743.874 C 320.899 744.234 321.179 744.594 321.469 744.944 C 321.699 745.224 321.939 745.494 322.179 745.774 C 325.449 749.524 329.219 752.974 331.519 757.454 C 332.791 759.93 333.44 762.68 333.409 765.464 C 333.402 766.26 333.346 767.055 333.239 767.844 L 331.869 767.844 C 331.991 767.056 332.058 766.261 332.069 765.464 C 332.113 763.303 331.693 761.159 330.839 759.174 C 328.809 754.474 324.919 750.904 321.579 747.144 C 320.999 746.494 320.449 745.824 319.919 745.154 C 317.184 741.8 315.2 737.899 314.099 733.714 C 312.896 728.388 312.602 722.898 313.229 717.474 C 313.559 714.004 314.059 710.544 314.729 707.114 C 314.809 706.664 314.899 706.214 314.989 705.774 C 319.522 684.229 329.731 664.288 344.559 648.014 C 344.839 647.704 345.129 647.384 345.419 647.074 C 346.009 646.444 346.879 647.474 346.289 648.104 Z" fill="#fff"/>
    <path d="M 315.345 707.293 C 306.76 705.014 301.09 696.851 301.951 688.01 C 302.039 687.144 303.388 687.239 303.301 688.106 C 302.483 696.34 307.786 703.942 315.796 706.018 C 316.639 706.237 316.183 707.511 315.345 707.293 Z" fill="#fff"/>
    <path d="M 320.272 744.091 C 327.914 739.746 333.639 732.679 336.303 724.301 C 336.566 723.471 337.841 723.923 337.578 724.752 C 334.789 733.466 328.817 740.807 320.854 745.312 C 320.095 745.741 319.516 744.517 320.272 744.091 Z" fill="#fff"/>
    <path d="M 329.353 670.473 C 332.44 672.021 336.098 671.914 339.088 670.187 C 339.842 669.749 340.419 670.972 339.67 671.408 C 336.359 673.299 332.326 673.427 328.902 671.748 C 328.559 671.614 328.378 671.236 328.49 670.885 C 328.616 670.534 329.001 670.351 329.353 670.473 Z" fill="#fff"/>
  </g>
</svg>